<?xml version="1.0" encoding="UTF-8" standalone="no"?>
<!-- Created with Inkscape (http://www.inkscape.org/) -->

<svg
   xmlns:dc="http://purl.org/dc/elements/1.1/"
   xmlns:cc="http://creativecommons.org/ns#"
   xmlns:rdf="http://www.w3.org/1999/02/22-rdf-syntax-ns#"
   xmlns:svg="http://www.w3.org/2000/svg"
   xmlns="http://www.w3.org/2000/svg"
   xmlns:sodipodi="http://sodipodi.sourceforge.net/DTD/sodipodi-0.dtd"
   xmlns:inkscape="http://www.inkscape.org/namespaces/inkscape"
   width="600"
   height="600"
   viewBox="0 0 158.75 158.75"
   version="1.1"
   id="svg8"
   inkscape:version="0.92.3 (2405546, 2018-03-11)"
   sodipodi:docname="logo.svg">
  <defs
     id="defs2" />
  <sodipodi:namedview
     id="base"
     pagecolor="#ffffff"
     bordercolor="#666666"
     borderopacity="1.0"
     inkscape:pageopacity="0.0"
     inkscape:pageshadow="2"
     inkscape:zoom="1.4"
     inkscape:cx="52.589547"
     inkscape:cy="194.52743"
     inkscape:document-units="mm"
     inkscape:current-layer="layer1"
     showgrid="false"
     units="px"
     inkscape:window-width="1853"
     inkscape:window-height="1025"
     inkscape:window-x="67"
     inkscape:window-y="27"
     inkscape:window-maximized="1" />
  <metadata
     id="metadata5">
    <rdf:RDF>
      <cc:Work
         rdf:about="">
        <dc:format>image/svg+xml</dc:format>
        <dc:type
           rdf:resource="http://purl.org/dc/dcmitype/StillImage" />
        <dc:title />
      </cc:Work>
    </rdf:RDF>
  </metadata>
  <g
     inkscape:label="Calque 1"
     inkscape:groupmode="layer"
     id="layer1"
     transform="translate(0,-138.24998)">
    <circle
       style="fill:#fcffff;fill-opacity:1;stroke:none;stroke-width:21.34774208;stroke-miterlimit:4;stroke-dasharray:none;stroke-opacity:1"
       id="path9"
       cx="79.375"
       cy="217.62498"
       r="77.508156" />
    <g
       aria-label="♠"
       transform="matrix(5.7484597,0,0,4.1534295,-565.63138,-358.03997)"
       style="font-style:normal;font-variant:normal;font-weight:normal;font-stretch:normal;font-size:40px;line-height:1.25;font-family:Confessions;-inkscape-font-specification:Confessions;letter-spacing:0px;word-spacing:0px;fill:#7b1fa2;fill-opacity:1;stroke:none"
       id="flowRoot3721">
      <path
         d="m 112.25391,123.39258 c 1.22395,2.17448 3.24218,5.05859 6.05468,8.65234 3.08594,3.61979 4.34251,5.76861 4.7461,6.54297 0.50781,1.10677 0.76172,2.18099 0.76172,3.22266 v 0.78125 c 0,2.17448 -1.05469,3.88672 -3.16407,5.13672 -0.6901,0.28645 -1.45182,0.42968 -2.28515,0.42968 -2.00521,0 -3.6263,-1.4388 -4.86328,-4.3164 h -0.82032 v 0.23437 c 0,3.6849 0.54037,6.50391 1.6211,8.45703 h -4.19922 v -0.11718 c 1.10677,-1.96615 1.66016,-4.80469 1.66016,-8.51563 l -0.0586,-0.0586 h -0.74219 l -0.91796,1.71875 c -1.10677,1.73177 -2.48698,2.59765 -4.14063,2.59765 -2.43489,0 -4.14713,-1.36068 -5.13672,-4.08203 -0.12329,-0.54602 -0.17578,-0.91389 -0.17578,-1.42578 v -0.89844 c 0,-2.38281 1.21745,-4.89583 3.65234,-7.53906 4.10157,-5.02604 6.73178,-8.61328 7.89063,-10.76172 l 0.0586,-0.0586 z"
         id="path11"
         inkscape:connector-curvature="0"
         sodipodi:nodetypes="cccsscsccscccccccsccscccc" />
    </g>
  </g>
</svg>
